<?xml version="1.0" encoding="UTF-8"?>
<svg xmlns="http://www.w3.org/2000/svg" xmlns:xlink="http://www.w3.org/1999/xlink" width="512" height="512" viewBox="0 0 58 40" version="1.1"><!-- Generator: Sketch 51.3 (57544) - http://www.bohemiancoding.com/sketch --><title>021 - Mechanic</title><desc>Created with Sketch.</desc><defs/><g id="Page-1" stroke="none" stroke-width="1" fill="none" fill-rule="evenodd"><g id="021---Mechanic" fill-rule="nonzero"><polygon id="Shape" fill="#95A5A5" points="8.833 12 12.983 12 44.444 12 50.417 12 50.36 4 44.444 4 17.086 4 8.89 4"/><path d="M24,8 L18,8.07 C18.2335037,8.02148277 18.4715174,7.99801663 18.71,8 L24,8 Z" id="Shape" fill="#FDD7AD"/><path d="M42,4 L42,18 C42,18.33 41.99,18.66 41.96,18.99 C41.7300033,21.6307567 40.7478858,24.1502524 39.13,26.25 L35.36,31.33 C35.1219352,31.7689176 34.9981347,32.2606804 35,32.76 L35,38 C35,38.5522847 34.5522847,39 34,39 L20,39 C19.4477153,39 19,38.5522847 19,38 L19,30.34 C18.9987268,29.8745575 18.8891716,29.4157952 18.68,29 L12.6,19.2 C12.2181881,18.4351214 12.1817933,17.5434508 12.5,16.75 L14.99,10.51 C15.2940902,9.77418182 15.8046264,9.14208933 16.46,8.69 C16.9221376,8.37380085 17.4476873,8.16221591 18,8.07 L24,8 L18.71,8 C18.4715174,7.99801663 18.2335037,8.02148277 18,8.07 L18,4 C18,2.34314579 19.3431458,1.00000009 21,1.00000009 C22.6568542,1.00000009 24,2.34314579 24,4 C24,2.34314575 25.3431458,1 27,1 C28.6568542,1 30,2.34314575 30,4 C30,2.34314575 31.3431458,1 33,1 C34.6568542,1 36,2.34314575 36,4 C36,2.34314575 37.3431458,1 39,1 C40.6568542,1 42,2.34314575 42,4 Z" id="Shape" fill="#FDD7AD"/><path d="M24,8 L18,8.07 C18.2335037,8.02148277 18.4715174,7.99801663 18.71,8 L24,8 Z" id="Shape" fill="#FDD7AD"/><path d="M39,15 C36.790861,15 35,13.209139 35,11 L35,4 C35,1.790861 36.790861,0 39,0 C41.209139,0 43,1.790861 43,4 L43,11 C43,13.209139 41.209139,15 39,15 Z M39,2 C37.8954305,2 37,2.8954305 37,4 L37,11 C37,12.1045695 37.8954305,13 39,13 C40.1045695,13 41,12.1045695 41,11 L41,4 C41,2.8954305 40.1045695,2 39,2 Z" id="Shape" fill="#F09372"/><path d="M33,15 C30.790861,15 29,13.209139 29,11 L29,4 C29,1.790861 30.790861,0 33,0 C35.209139,0 37,1.790861 37,4 L37,11 C37,13.209139 35.209139,15 33,15 Z M33,2 C31.8954305,2 31,2.8954305 31,4 L31,11 C31,12.1045695 31.8954305,13 33,13 C34.1045695,13 35,12.1045695 35,11 L35,4 C35,2.8954305 34.1045695,2 33,2 Z" id="Shape" fill="#F09372"/><path d="M30,12 C29.4477153,12 29,11.5522847 29,11 L29,4 C29,2.8954305 28.1045695,2 27,2 C25.8954305,2 25,2.8954305 25,4 L25,8 C25,8.55228475 24.5522847,9 24,9 C23.4477153,9 23,8.55228475 23,8 L23,4 C23,1.790861 24.790861,0 27,0 C29.209139,0 31,1.790861 31,4 L31,11 C31,11.5522847 30.5522847,12 30,12 Z" id="Shape" fill="#F09372"/><path d="M18,9.07 C17.4477153,9.07 17,8.62228475 17,8.07 L17,4 C17,1.790861 18.790861,0 21,0 C23.209139,0 25,1.790861 25,4 L25,8 C25,8.55228475 24.5522847,9 24,9 C23.4477153,9 23,8.55228475 23,8 L23,4 C23,2.8954305 22.1045695,2 21,2 C19.8954305,2 19,2.8954305 19,4 L19,8.07 C19,8.62228475 18.5522847,9.07 18,9.07 Z" id="Shape" fill="#F09372"/><path d="M34,40 L20,40 C18.8954305,40 18,39.1045695 18,38 L18,30.342 C17.999651,30.031704 17.9274301,29.7257064 17.789,29.448 L11.753,19.732 C11.2083099,18.6930181 11.1422507,17.4685523 11.572,16.377 L14.065,10.143 C14.8191907,8.24031586 16.6613036,6.99332877 18.708,7 L27.953,7 C28.8398909,7.00027935 29.6814874,7.39180471 30.253,8.07 C30.817539,8.73556232 31.0591134,9.61657661 30.913,10.477 C30.5522279,13.582441 27.9391366,15.9355082 24.813,15.97 C27.228,17.68 30,20.6 30,25 C30,25.5522847 29.5522847,26 29,26 C28.4477153,26 28,25.5522847 28,25 C28,18.79 20.721,15.964 20.647,15.936 C20.1944669,15.7658174 19.9284938,15.2962556 20.0152183,14.8206222 C20.1019428,14.3449888 20.516525,13.9995159 21,14 L24,14 C26.848,14 28.512,12.7 28.946,10.142 C28.9931018,9.86205703 28.9136231,9.57564078 28.729,9.36 C28.536003,9.13153535 28.2520717,8.99981468 27.953,9 L18.711,9 C17.482028,8.99478547 16.3754688,9.74334024 15.923,10.886 L13.429,17.121 C13.2168654,17.6513414 13.241612,18.2470792 13.497,18.758 L19.533,28.473 C19.8360277,29.0496373 19.9961827,29.6906001 20,30.342 L20,38 L34,38 L34,32.756 C33.9995771,32.0928605 34.1638248,31.4399932 34.478,30.856 C34.5009469,30.813679 34.5266697,30.7729233 34.555,30.734 L38.329,25.648 C39.8304617,23.7000483 40.7455483,21.3644616 40.967,18.915 C40.989,18.615 41,18.303 41,17.996 L41,10 C41,9.44771525 41.4477153,9 42,9 C42.5522847,9 43,9.44771525 43,10 L43,18 C43,18.355 42.987,18.708 42.962,19.061 C42.714303,21.8905506 41.6641748,24.5906325 39.935,26.844 L36.209,31.866 C36.0717938,32.1426381 36.0002718,32.4472054 36,32.756 L36,38 C36,39.1045695 35.1045695,40 34,40 Z" id="Shape" fill="#F09372"/><path d="M0.384,12.686 C0.115183644,12.3929425 0.0442316356,11.9690342 0.202968749,11.6044146 C0.361705862,11.239795 0.720336236,11.0029054 1.118,11 L4,11 C4.83388546,11.0000216 5.63015526,10.6529628 6.19777725,10.0420862 C6.76539924,9.43120958 7.0531516,8.61164021 6.992,7.78 C6.81815435,6.17409922 5.44595193,4.96729038 3.831,5 L1.056,5 C0.674691365,5.00202437 0.325419124,4.78702171 0.155485343,4.44566722 C-0.0144484387,4.10431274 0.0245370228,3.69602684 0.256,3.393 C1.49663444,1.88342339 3.34604015,1.00601898 5.3,1 C9.07096638,1.07440281 12.0691498,4.18893364 12,7.96 C12.0730749,11.7342856 9.07422751,14.8539821 5.3,14.93 C3.41478292,14.9242001 1.62344588,14.1065108 0.384,12.686 Z" id="Shape" fill="#7F8C8D"/><path d="M56.944,5 L54.169,5 C52.5540481,4.96729038 51.1818457,6.17409922 51.008,7.78 C50.9468484,8.61164021 51.2346008,9.43120958 51.8022228,10.0420862 C52.3698447,10.6529628 53.1661145,11.0000216 54,11 L56.882,11 C57.2796638,11.0029054 57.6382941,11.239795 57.7970313,11.6044146 C57.9557684,11.9690342 57.8848164,12.3929425 57.616,12.686 C56.3765541,14.1065108 54.5852171,14.9242001 52.7,14.93 C48.9257725,14.8539821 45.9269251,11.7342856 46,7.96 C45.9308502,4.18893364 48.9290336,1.07440281 52.7,1 C54.6525581,1.0072095 56.500257,1.88449988 57.74,3.393 C57.9710173,3.6954538 58.0103222,4.10282297 57.8413926,4.4438656 C57.672463,4.78490822 57.3245878,5.00049431 56.944,5 Z" id="Shape" fill="#7F8C8D"/></g></g></svg>
