<svg height="512pt" viewBox="0 0 512 512" width="512pt" xmlns="http://www.w3.org/2000/svg"><path d="m256 186.453125c-38.347656 0-69.546875 31.199219-69.546875 69.546875s31.199219 69.546875 69.546875 69.546875c38.351562 0 69.550781-31.199219 69.550781-69.546875s-31.199219-69.546875-69.550781-69.546875zm0 0"/><path d="m474.835938 190.613281-24.96875-4.234375c-2.222657-6.1875-4.734376-12.257812-7.511719-18.160156l14.703125-20.570312c12.792968-17.972657 10.738281-42.246094-4.835938-57.667969l-30.003906-30.007813c-8.480469-8.480468-19.722656-13.152344-31.648438-13.152344-9.398437 0-18.382812 2.894532-25.921874 8.320313l-20.648438 14.707031c-6.386719-3.019531-12.867188-5.691406-19.390625-7.992187l-4.128906-24.46875c-3.636719-21.664063-22.222657-37.386719-44.195313-37.386719h-42.386718c-21.972657 0-40.558594 15.722656-44.1875 37.347656l-4.339844 25.421875c-6.128906 2.238281-12.175782 4.785157-18.089844 7.617188l-20.273438-14.597657c-7.601562-5.472656-16.621093-8.363281-26.082031-8.363281-12.054687 0-23.300781 4.683594-31.6875 13.1875l-30.070312 29.972657c-15.53125 15.53125-17.566407 39.78125-4.835938 57.664062l14.941407 20.996094c-2.75 5.917968-5.226563 12.015625-7.417969 18.246094l-24.46875 4.125c-21.664063 3.636718-37.386719 22.222656-37.386719 44.195312v42.390625c0 21.972656 15.722656 40.558594 37.347656 44.1875l25.421875 4.335937c2.238281 6.132813 4.785157 12.183594 7.621094 18.097657l-14.546875 20.234375c-12.792969 17.972656-10.738281 42.246094 4.835938 57.667968l30.003906 30.003907c8.480468 8.480469 19.722656 13.152343 31.652344 13.152343 9.394531 0 18.382812-2.894531 25.914062-8.316406l20.992188-14.941406c5.519531 2.5625 11.234374 4.910156 17.105468 7.023438l4.160156 24.964843c3.636719 21.664063 22.222657 37.386719 44.195313 37.386719h42.488281c21.972656 0 40.558594-15.722656 44.191406-37.359375l4.234376-24.972656c6.1875-2.222657 12.257812-4.734375 18.160156-7.511719l20.507812 14.660156c7.601563 5.472656 16.617188 8.363282 26.082032 8.363282 11.929687 0 23.167968-4.667969 31.648437-13.152344l30.007813-30.003906c15.53125-15.535157 17.5625-39.785157 4.832031-57.671876l-14.71875-20.664062c2.851562-6.042969 5.371093-12.105469 7.542969-18.140625l24.929687-4.15625c21.664063-3.636719 37.386719-22.222656 37.386719-44.195313v-42.300781c.246094-22-15.363282-40.609375-37.160156-44.28125zm-218.835938 164.933594c-54.890625 0-99.546875-44.65625-99.546875-99.546875s44.65625-99.546875 99.546875-99.546875 99.550781 44.65625 99.550781 99.546875-44.660156 99.546875-99.550781 99.546875zm0 0"/></svg>